<?xml version="1.0" encoding="UTF-8" standalone="no"?>
<!-- Created with Inkscape (http://www.inkscape.org/) -->

<svg
   xmlns:dc="http://purl.org/dc/elements/1.1/"
   xmlns:cc="http://creativecommons.org/ns#"
   xmlns:rdf="http://www.w3.org/1999/02/22-rdf-syntax-ns#"
   xmlns:svg="http://www.w3.org/2000/svg"
   xmlns="http://www.w3.org/2000/svg"
   xmlns:sodipodi="http://sodipodi.sourceforge.net/DTD/sodipodi-0.dtd"
   xmlns:inkscape="http://www.inkscape.org/namespaces/inkscape"
   width="159.20554"
   height="154.23892"
   id="svg2"
   version="1.1"
   inkscape:version="0.48.2 r9819"
   sodipodi:docname="sans.svg">
  <defs
     id="defs4" />
  <sodipodi:namedview
     id="base"
     pagecolor="#ffffff"
     bordercolor="#666666"
     borderopacity="1.0"
     inkscape:pageopacity="0.0"
     inkscape:pageshadow="2"
     inkscape:zoom="1.979899"
     inkscape:cx="215.45097"
     inkscape:cy="59.546684"
     inkscape:document-units="px"
     inkscape:current-layer="layer1"
     showgrid="true"
     inkscape:window-width="1366"
     inkscape:window-height="750"
     inkscape:window-x="0"
     inkscape:window-y="18"
     inkscape:window-maximized="0"
     fit-margin-top="0"
     fit-margin-left="0"
     fit-margin-right="0"
     fit-margin-bottom="0"
     inkscape:snap-bbox="true"
     inkscape:snap-bbox-midpoints="true"
     inkscape:snap-global="false"
     inkscape:snap-nodes="false">
    <inkscape:grid
       type="xygrid"
       id="grid3640"
       empspacing="5"
       visible="true"
       enabled="true"
       snapvisiblegridlinesonly="true"
       spacingx="40px"
       spacingy="80px" />
  </sodipodi:namedview>
  <metadata
     id="metadata7">
    <rdf:RDF>
      <cc:Work
         rdf:about="">
        <dc:format>image/svg+xml</dc:format>
        <dc:type
           rdf:resource="http://purl.org/dc/dcmitype/StillImage" />
        <dc:title></dc:title>
      </cc:Work>
    </rdf:RDF>
  </metadata>
  <g
     inkscape:label="Layer 1"
     inkscape:groupmode="layer"
     id="layer1"
     transform="translate(-49.905719,-53.086512)">
    <g
       id="g3267"
       transform="matrix(0.39730329,0,0,0.39730329,46.642174,45.235978)"
       inkscape:export-filename="/home/scvalex/proj/super-max/cpp/data/sans/1.png"
       inkscape:export-xdpi="93.696869"
       inkscape:export-ydpi="93.696869">
      <path
         style="fill:#000000;fill-opacity:1;stroke:none"
         d="m 75.946713,21.523877 c 0,0 31.282257,-3.969737 31.110287,0 l -0.72632,34.870825 -2.85369,2.251166 -1.1349,-3.818524 -3.369334,1.557488 0.06826,-3.645105 -3.541216,1.384067 -1.650536,-3.124845 -3.197453,0.343549 -9.385138,-6.419824 9.347686,9.53878 0.581807,2.428569 2.472485,-0.519569 0.925564,3.122248 3.331885,-1.039828 -0.277593,3.122247 4.706933,-0.346147 2.81623,3.815926 -0.17724,4.091568 C 104.47407,81.148771 75.946713,65.668071 75.946713,65.668071 z"
         id="path3027"
         inkscape:connector-curvature="0"
         sodipodi:nodetypes="cscccccccccccccccccscc" />
      <path
         style="fill:#f9f9f9;stroke:#000000;stroke-width:2.51696897px;stroke-linecap:butt;stroke-linejoin:miter;stroke-opacity:1"
         d="m 97.814858,28.983989 2.356462,8.87323 -7.845185,-2.120945 z"
         id="path3029"
         inkscape:connector-curvature="0" />
      <path
         style="fill:#000000;fill-opacity:1;stroke:none"
         d="m 61.508792,66.266183 14.094159,0 0,11.792546 -14.094159,0 z"
         id="path3031"
         inkscape:connector-curvature="0" />
      <path
         style="fill:#000000;fill-opacity:1;stroke:none"
         d="m 56.008632,79.099247 35.063522,0 -12.71912,39.539713 4.125121,29.13453 -31.969683,0 z"
         id="path3033"
         inkscape:connector-curvature="0"
         sodipodi:nodetypes="cccccc" />
      <rect
         style="fill:#000000;fill-opacity:1;stroke:none"
         id="rect3035"
         width="12.382819"
         height="25.304293"
         x="92.530922"
         y="127.031"
         transform="matrix(0.9653441,0.26098039,-0.25667305,0.96649829,0,0)" />
      <rect
         y="175.85028"
         x="49.191208"
         height="25.31929"
         width="12.375361"
         id="rect3037"
         style="fill:#000000;fill-opacity:1;stroke:none" />
      <rect
         style="fill:#000000;fill-opacity:1;stroke:none"
         id="rect3039"
         width="7.6770363"
         height="9.0743475"
         x="62.770145"
         y="192.70203" />
      <rect
         y="164.25223"
         x="28.741072"
         height="25.304293"
         width="12.382819"
         id="rect3041"
         style="fill:#000000;fill-opacity:1;stroke:none"
         transform="matrix(0.9653441,-0.26098039,0.25667305,0.96649829,0,0)" />
      <rect
         style="fill:#000000;fill-opacity:1;stroke:none"
         id="rect3043"
         width="12.375361"
         height="25.31929"
         x="72.940765"
         y="177.29544" />
      <rect
         y="194.1472"
         x="86.519691"
         height="9.0743475"
         width="7.6770363"
         id="rect3045"
         style="fill:#000000;fill-opacity:1;stroke:none" />
    </g>
    <g
       id="g3529"
       transform="matrix(0.39730329,0,0,0.39730329,31.653901,44.977557)"
       inkscape:export-filename="/home/scvalex/proj/super-max/cpp/data/sans/2.png"
       inkscape:export-xdpi="93.696869"
       inkscape:export-ydpi="93.696869">
      <g
         transform="matrix(0.96592583,-0.25881905,0.25881905,0.96592583,-9.2541259,58.695318)"
         id="g3379">
        <path
           style="fill:#000000;fill-opacity:1;stroke:none"
           d="m 226.15294,22.910635 c 0,0 31.24378,4.261973 30.05023,8.051935 l -9.7268,33.494645 -3.3391,1.435871 -0.10792,-3.982145 -3.65763,0.632371 1.00939,-3.503224 -3.77878,0.420371 -0.78553,-3.44556 -3.17741,-0.495718 -7.40378,-8.630126 6.56036,11.633114 -0.0666,2.496401 2.52271,0.13806 0.0859,3.255412 3.48749,-0.14204 -1.07623,2.944013 4.63614,0.883891 1.73263,4.414796 -1.23018,3.906278 C 238.27619,87.887284 214.72758,65.550652 214.72758,65.550652 z"
           id="path3107"
           inkscape:connector-curvature="0"
           sodipodi:nodetypes="cscccccccccccccccccscc" />
        <path
           style="fill:#f9f9f9;stroke:#000000;stroke-width:2.51696897px;stroke-linecap:butt;stroke-linejoin:miter;stroke-opacity:1"
           d="m 245.34513,35.776443 -0.0204,9.180779 -7.02894,-4.07916 z"
           id="path3109"
           inkscape:connector-curvature="0" />
      </g>
      <path
         inkscape:connector-curvature="0"
         id="path3111"
         d="M 200.62682,62.391575 214.24073,66.039412 211.1886,77.430137 197.57468,73.7823 z"
         style="fill:#000000;fill-opacity:1;stroke:none" />
      <path
         sodipodi:nodetypes="cccccc"
         inkscape:connector-curvature="0"
         id="path3113"
         d="m 191.99263,73.363817 33.86876,9.075107 -22.51936,34.900476 -3.55601,29.20946 -30.88034,-8.27436 z"
         style="fill:#000000;fill-opacity:1;stroke:none" />
      <rect
         transform="matrix(0.9653441,0.26098039,-0.25667305,0.96649829,0,0)"
         y="97.278938"
         x="202.71281"
         height="25.304293"
         width="12.382819"
         id="rect3115"
         style="fill:#000000;fill-opacity:1;stroke:none" />
      <rect
         transform="matrix(0.8660254,0.5,-0.5,0.8660254,0,0)"
         style="fill:#000000;fill-opacity:1;stroke:none"
         id="rect3117"
         width="12.375361"
         height="25.31929"
         x="229.55753"
         y="68.905296" />
      <rect
         transform="matrix(0.8660254,0.5,-0.5,0.8660254,0,0)"
         y="85.43676"
         x="242.80042"
         height="9.0743475"
         width="7.6770363"
         id="rect3119"
         style="fill:#000000;fill-opacity:1;stroke:none" />
      <rect
         transform="matrix(0.9999975,-0.00223826,-0.00222104,0.99999753,0,0)"
         style="fill:#000000;fill-opacity:1;stroke:none"
         id="rect3121"
         width="12.382819"
         height="25.304293"
         x="187.29799"
         y="149.64247" />
      <rect
         y="177.29544"
         x="186.94077"
         height="25.31929"
         width="12.375361"
         id="rect3123"
         style="fill:#000000;fill-opacity:1;stroke:none" />
      <rect
         style="fill:#000000;fill-opacity:1;stroke:none"
         id="rect3125"
         width="7.6770363"
         height="9.0743475"
         x="200.51968"
         y="194.1472" />
    </g>
    <g
       id="g3542"
       transform="matrix(0.39730329,0,0,0.39730329,21.833997,44.977557)"
       inkscape:export-filename="/home/scvalex/proj/super-max/cpp/data/sans/3.png"
       inkscape:export-xdpi="93.696869"
       inkscape:export-ydpi="93.696869">
      <g
         transform="matrix(0.96592583,-0.25881905,0.25881905,0.96592583,-5.5465676,90.857022)"
         id="g3401">
        <path
           sodipodi:nodetypes="cscccccccccccccccccscc"
           inkscape:connector-curvature="0"
           id="path3127"
           d="m 350.15294,24.910636 c 0,0 31.24379,4.261973 30.05023,8.051936 l -9.7268,33.494645 -3.3391,1.43587 -0.10792,-3.982145 -3.65763,0.632371 1.00939,-3.503223 -3.77878,0.420371 -0.78553,-3.44556 -3.17741,-0.495718 -7.40378,-8.630127 6.56036,11.633114 -0.0666,2.496401 2.52271,0.13806 0.0859,3.255412 3.48748,-0.14204 -1.07623,2.944014 4.63614,0.883891 1.73263,4.414795 -1.23017,3.906278 c -3.61168,11.468305 -27.1603,-10.868328 -27.1603,-10.868328 z"
           style="fill:#000000;fill-opacity:1;stroke:none" />
        <path
           inkscape:connector-curvature="0"
           id="path3129"
           d="m 369.34513,37.776445 -0.0204,9.180779 -7.02893,-4.079161 z"
           style="fill:#f9f9f9;stroke:#000000;stroke-width:2.51696897px;stroke-linecap:butt;stroke-linejoin:miter;stroke-opacity:1" />
      </g>
      <path
         style="fill:#000000;fill-opacity:1;stroke:none"
         d="m 324.62682,64.391576 13.61391,3.647838 -3.05213,11.390724 -13.61392,-3.647837 z"
         id="path3131"
         inkscape:connector-curvature="0" />
      <path
         style="fill:#000000;fill-opacity:1;stroke:none"
         d="m 315.99263,75.363817 33.86876,9.075107 -22.51936,34.900476 -3.55601,29.20946 -30.88034,-8.27436 z"
         id="path3133"
         inkscape:connector-curvature="0"
         sodipodi:nodetypes="cccccc" />
      <rect
         style="fill:#000000;fill-opacity:1;stroke:none"
         id="rect3135"
         width="12.382819"
         height="25.304293"
         x="179.03314"
         y="279.88736"
         transform="matrix(0.86714237,-0.49806035,0.50192225,0.86491275,0,0)" />
      <rect
         y="-181.78915"
         x="302.41531"
         height="25.31929"
         width="12.375361"
         id="rect3137"
         style="fill:#000000;fill-opacity:1;stroke:none"
         transform="matrix(0.5,0.8660254,-0.8660254,0.5,0,0)" />
      <rect
         style="fill:#000000;fill-opacity:1;stroke:none"
         id="rect3139"
         width="7.6770363"
         height="9.0743475"
         x="315.65817"
         y="-165.25769"
         transform="matrix(0.5,0.8660254,-0.8660254,0.5,0,0)" />
      <rect
         y="149.90662"
         x="305.29889"
         height="25.304293"
         width="12.382819"
         id="rect3141"
         style="fill:#000000;fill-opacity:1;stroke:none"
         transform="matrix(0.9999975,-0.00223826,-0.00222104,0.99999753,0,0)" />
      <rect
         style="fill:#000000;fill-opacity:1;stroke:none"
         id="rect3143"
         width="12.375361"
         height="25.31929"
         x="304.94077"
         y="177.29544" />
      <rect
         y="194.1472"
         x="318.51968"
         height="9.0743475"
         width="7.6770363"
         id="rect3145"
         style="fill:#000000;fill-opacity:1;stroke:none" />
    </g>
    <g
       id="g3303"
       transform="matrix(-0.39730329,0,0,0.39730329,92.440098,125.39844)"
       inkscape:export-filename="/home/scvalex/proj/super-max/cpp/data/sans/5.png"
       inkscape:export-xdpi="93.696869"
       inkscape:export-ydpi="93.696869">
      <path
         sodipodi:nodetypes="cscccccccccccccccccscc"
         inkscape:connector-curvature="0"
         id="path3305"
         d="m 75.946713,21.523877 c 0,0 31.282257,-3.969737 31.110287,0 l -0.72632,34.870825 -2.85369,2.251166 -1.1349,-3.818524 -3.369334,1.557488 0.06826,-3.645105 -3.541216,1.384067 -1.650536,-3.124845 -3.197453,0.343549 -9.385138,-6.419824 9.347686,9.53878 0.581807,2.428569 2.472485,-0.519569 0.925564,3.122248 3.331885,-1.039828 -0.277593,3.122247 4.706933,-0.346147 2.81623,3.815926 -0.17724,4.091568 C 104.47407,81.148771 75.946713,65.668071 75.946713,65.668071 z"
         style="fill:#000000;fill-opacity:1;stroke:none" />
      <path
         inkscape:connector-curvature="0"
         id="path3307"
         d="m 97.814858,28.983989 2.356462,8.87323 -7.845185,-2.120945 z"
         style="fill:#f9f9f9;stroke:#000000;stroke-width:2.51696897px;stroke-linecap:butt;stroke-linejoin:miter;stroke-opacity:1" />
      <path
         inkscape:connector-curvature="0"
         id="path3309"
         d="m 61.508792,66.266183 14.094159,0 0,11.792546 -14.094159,0 z"
         style="fill:#000000;fill-opacity:1;stroke:none" />
      <path
         sodipodi:nodetypes="cccccc"
         inkscape:connector-curvature="0"
         id="path3311"
         d="m 56.008632,79.099247 35.063522,0 -12.71912,39.539713 4.125121,29.13453 -31.969683,0 z"
         style="fill:#000000;fill-opacity:1;stroke:none" />
      <rect
         transform="matrix(0.9653441,0.26098039,-0.25667305,0.96649829,0,0)"
         y="127.031"
         x="92.530922"
         height="25.304293"
         width="12.382819"
         id="rect3313"
         style="fill:#000000;fill-opacity:1;stroke:none" />
      <rect
         style="fill:#000000;fill-opacity:1;stroke:none"
         id="rect3315"
         width="12.375361"
         height="25.31929"
         x="49.191208"
         y="175.85028" />
      <rect
         y="192.70203"
         x="62.770145"
         height="9.0743475"
         width="7.6770363"
         id="rect3317"
         style="fill:#000000;fill-opacity:1;stroke:none" />
      <rect
         transform="matrix(0.9653441,-0.26098039,0.25667305,0.96649829,0,0)"
         style="fill:#000000;fill-opacity:1;stroke:none"
         id="rect3319"
         width="12.382819"
         height="25.304293"
         x="28.741072"
         y="164.25223" />
      <rect
         y="177.29544"
         x="72.940765"
         height="25.31929"
         width="12.375361"
         id="rect3321"
         style="fill:#000000;fill-opacity:1;stroke:none" />
      <rect
         style="fill:#000000;fill-opacity:1;stroke:none"
         id="rect3323"
         width="7.6770363"
         height="9.0743475"
         x="86.519691"
         y="194.1472" />
    </g>
    <g
       id="g3555"
       transform="matrix(0.39730329,0,0,0.39730329,14.339859,44.977557)"
       inkscape:export-filename="/home/scvalex/proj/super-max/cpp/data/sans/4.png"
       inkscape:export-xdpi="93.696869"
       inkscape:export-ydpi="93.696869">
      <g
         transform="translate(23.175837,2.7687384)"
         id="g3525">
        <path
           style="fill:#000000;fill-opacity:1;stroke:none"
           d="m 435.94671,21.523877 c 0,0 31.28226,-3.969737 31.11029,0 l -0.72632,34.870825 -2.85369,2.251166 -1.1349,-3.818524 -3.36933,1.557488 0.0683,-3.645105 -3.54122,1.384067 -1.65054,-3.124845 -3.19745,0.343549 -9.38514,-6.419824 9.34769,9.53878 0.58181,2.428569 2.47248,-0.519569 0.92556,3.122248 3.33189,-1.039828 -0.27759,3.122247 4.70693,-0.346147 2.81623,3.815926 -0.17724,4.091568 c -0.52036,12.012303 -29.04772,-3.468397 -29.04772,-3.468397 z"
           id="path3407"
           inkscape:connector-curvature="0"
           sodipodi:nodetypes="cscccccccccccccccccscc" />
        <path
           style="fill:#f9f9f9;stroke:#000000;stroke-width:2.51696897px;stroke-linecap:butt;stroke-linejoin:miter;stroke-opacity:1"
           d="m 457.81486,28.983989 2.35646,8.87323 -7.84518,-2.120945 z"
           id="path3409"
           inkscape:connector-curvature="0" />
      </g>
      <path
         inkscape:connector-curvature="0"
         id="path3411"
         d="M 444.62682,64.391575 458.24073,68.039412 455.1886,79.430137 441.57468,75.7823 z"
         style="fill:#000000;fill-opacity:1;stroke:none" />
      <path
         sodipodi:nodetypes="cccccc"
         inkscape:connector-curvature="0"
         id="path3413"
         d="m 435.99263,75.363817 33.86876,9.075107 -22.51936,34.900476 -3.556,29.20946 -30.88035,-8.27436 z"
         style="fill:#000000;fill-opacity:1;stroke:none" />
      <rect
         transform="matrix(0.9653441,0.26098039,-0.25667305,0.96649829,0,0)"
         y="33.077122"
         x="440.47375"
         height="25.304293"
         width="12.382819"
         id="rect3415"
         style="fill:#000000;fill-opacity:1;stroke:none" />
      <rect
         style="fill:#000000;fill-opacity:1;stroke:none"
         id="rect3417"
         width="12.375361"
         height="25.31929"
         x="409.19122"
         y="175.85028" />
      <rect
         y="192.70203"
         x="422.77014"
         height="9.0743475"
         width="7.6770363"
         id="rect3419"
         style="fill:#000000;fill-opacity:1;stroke:none" />
      <rect
         transform="matrix(0.9653441,-0.26098039,0.25667305,0.96649829,0,0)"
         style="fill:#000000;fill-opacity:1;stroke:none"
         id="rect3421"
         width="12.382819"
         height="25.304293"
         x="376.68393"
         y="258.20612" />
      <rect
         y="177.29544"
         x="432.94077"
         height="25.31929"
         width="12.375361"
         id="rect3423"
         style="fill:#000000;fill-opacity:1;stroke:none" />
      <rect
         style="fill:#000000;fill-opacity:1;stroke:none"
         id="rect3425"
         width="7.6770363"
         height="9.0743475"
         x="446.51968"
         y="194.1472" />
    </g>
    <g
       id="g3568"
       transform="matrix(-0.39730329,0,0,0.39730329,187.48951,125.04879)"
       inkscape:export-filename="/home/scvalex/proj/super-max/cpp/data/sans/6.png"
       inkscape:export-xdpi="93.696869"
       inkscape:export-ydpi="93.696869">
      <g
         id="g3570"
         transform="matrix(0.96592583,-0.25881905,0.25881905,0.96592583,-9.2541259,58.695318)">
        <path
           sodipodi:nodetypes="cscccccccccccccccccscc"
           inkscape:connector-curvature="0"
           id="path3572"
           d="m 226.15294,22.910635 c 0,0 31.24378,4.261973 30.05023,8.051935 l -9.7268,33.494645 -3.3391,1.435871 -0.10792,-3.982145 -3.65763,0.632371 1.00939,-3.503224 -3.77878,0.420371 -0.78553,-3.44556 -3.17741,-0.495718 -7.40378,-8.630126 6.56036,11.633114 -0.0666,2.496401 2.52271,0.13806 0.0859,3.255412 3.48749,-0.14204 -1.07623,2.944013 4.63614,0.883891 1.73263,4.414796 -1.23018,3.906278 C 238.27619,87.887284 214.72758,65.550652 214.72758,65.550652 z"
           style="fill:#000000;fill-opacity:1;stroke:none" />
        <path
           inkscape:connector-curvature="0"
           id="path3574"
           d="m 245.34513,35.776443 -0.0204,9.180779 -7.02894,-4.07916 z"
           style="fill:#f9f9f9;stroke:#000000;stroke-width:2.51696897px;stroke-linecap:butt;stroke-linejoin:miter;stroke-opacity:1" />
      </g>
      <path
         style="fill:#000000;fill-opacity:1;stroke:none"
         d="M 200.62682,62.391575 214.24073,66.039412 211.1886,77.430137 197.57468,73.7823 z"
         id="path3576"
         inkscape:connector-curvature="0" />
      <path
         style="fill:#000000;fill-opacity:1;stroke:none"
         d="m 191.99263,73.363817 33.86876,9.075107 -22.51936,34.900476 -3.55601,29.20946 -30.88034,-8.27436 z"
         id="path3578"
         inkscape:connector-curvature="0"
         sodipodi:nodetypes="cccccc" />
      <rect
         style="fill:#000000;fill-opacity:1;stroke:none"
         id="rect3580"
         width="12.382819"
         height="25.304293"
         x="202.71281"
         y="97.278938"
         transform="matrix(0.9653441,0.26098039,-0.25667305,0.96649829,0,0)" />
      <rect
         y="68.905296"
         x="229.55753"
         height="25.31929"
         width="12.375361"
         id="rect3582"
         style="fill:#000000;fill-opacity:1;stroke:none"
         transform="matrix(0.8660254,0.5,-0.5,0.8660254,0,0)" />
      <rect
         style="fill:#000000;fill-opacity:1;stroke:none"
         id="rect3584"
         width="7.6770363"
         height="9.0743475"
         x="242.80042"
         y="85.43676"
         transform="matrix(0.8660254,0.5,-0.5,0.8660254,0,0)" />
      <rect
         y="149.64247"
         x="187.29799"
         height="25.304293"
         width="12.382819"
         id="rect3586"
         style="fill:#000000;fill-opacity:1;stroke:none"
         transform="matrix(0.9999975,-0.00223826,-0.00222104,0.99999753,0,0)" />
      <rect
         style="fill:#000000;fill-opacity:1;stroke:none"
         id="rect3588"
         width="12.375361"
         height="25.31929"
         x="186.94077"
         y="177.29544" />
      <rect
         y="194.1472"
         x="200.51968"
         height="9.0743475"
         width="7.6770363"
         id="rect3590"
         style="fill:#000000;fill-opacity:1;stroke:none" />
    </g>
    <g
       id="g3592"
       transform="matrix(-0.39730329,0,0,0.39730329,276.70445,125.25553)"
       inkscape:export-filename="/home/scvalex/proj/super-max/cpp/data/sans/7.png"
       inkscape:export-xdpi="93.696869"
       inkscape:export-ydpi="93.696869">
      <g
         id="g3594"
         transform="matrix(0.96592583,-0.25881905,0.25881905,0.96592583,-5.5465676,90.857022)">
        <path
           style="fill:#000000;fill-opacity:1;stroke:none"
           d="m 350.15294,24.910636 c 0,0 31.24379,4.261973 30.05023,8.051936 l -9.7268,33.494645 -3.3391,1.43587 -0.10792,-3.982145 -3.65763,0.632371 1.00939,-3.503223 -3.77878,0.420371 -0.78553,-3.44556 -3.17741,-0.495718 -7.40378,-8.630127 6.56036,11.633114 -0.0666,2.496401 2.52271,0.13806 0.0859,3.255412 3.48748,-0.14204 -1.07623,2.944014 4.63614,0.883891 1.73263,4.414795 -1.23017,3.906278 c -3.61168,11.468305 -27.1603,-10.868328 -27.1603,-10.868328 z"
           id="path3596"
           inkscape:connector-curvature="0"
           sodipodi:nodetypes="cscccccccccccccccccscc" />
        <path
           style="fill:#f9f9f9;stroke:#000000;stroke-width:2.51696897px;stroke-linecap:butt;stroke-linejoin:miter;stroke-opacity:1"
           d="m 369.34513,37.776445 -0.0204,9.180779 -7.02893,-4.079161 z"
           id="path3598"
           inkscape:connector-curvature="0" />
      </g>
      <path
         inkscape:connector-curvature="0"
         id="path3600"
         d="m 324.62682,64.391576 13.61391,3.647838 -3.05213,11.390724 -13.61392,-3.647837 z"
         style="fill:#000000;fill-opacity:1;stroke:none" />
      <path
         sodipodi:nodetypes="cccccc"
         inkscape:connector-curvature="0"
         id="path3602"
         d="m 315.99263,75.363817 33.86876,9.075107 -22.51936,34.900476 -3.55601,29.20946 -30.88034,-8.27436 z"
         style="fill:#000000;fill-opacity:1;stroke:none" />
      <rect
         transform="matrix(0.86714237,-0.49806035,0.50192225,0.86491275,0,0)"
         y="279.88736"
         x="179.03314"
         height="25.304293"
         width="12.382819"
         id="rect3604"
         style="fill:#000000;fill-opacity:1;stroke:none" />
      <rect
         transform="matrix(0.5,0.8660254,-0.8660254,0.5,0,0)"
         style="fill:#000000;fill-opacity:1;stroke:none"
         id="rect3606"
         width="12.375361"
         height="25.31929"
         x="302.41531"
         y="-181.78915" />
      <rect
         transform="matrix(0.5,0.8660254,-0.8660254,0.5,0,0)"
         y="-165.25769"
         x="315.65817"
         height="9.0743475"
         width="7.6770363"
         id="rect3608"
         style="fill:#000000;fill-opacity:1;stroke:none" />
      <rect
         transform="matrix(0.9999975,-0.00223826,-0.00222104,0.99999753,0,0)"
         style="fill:#000000;fill-opacity:1;stroke:none"
         id="rect3610"
         width="12.382819"
         height="25.304293"
         x="305.29889"
         y="149.90662" />
      <rect
         y="177.29544"
         x="304.94077"
         height="25.31929"
         width="12.375361"
         id="rect3612"
         style="fill:#000000;fill-opacity:1;stroke:none" />
      <rect
         style="fill:#000000;fill-opacity:1;stroke:none"
         id="rect3614"
         width="7.6770363"
         height="9.0743475"
         x="318.51968"
         y="194.1472" />
    </g>
    <g
       id="g3616"
       transform="matrix(-0.39730329,0,0,0.39730329,364.10043,125.35814)"
       inkscape:export-filename="/home/scvalex/proj/super-max/cpp/data/sans/8.png"
       inkscape:export-xdpi="93.696869"
       inkscape:export-ydpi="93.696869">
      <g
         id="g3618"
         transform="translate(23.175837,2.7687384)">
        <path
           sodipodi:nodetypes="cscccccccccccccccccscc"
           inkscape:connector-curvature="0"
           id="path3620"
           d="m 435.94671,21.523877 c 0,0 31.28226,-3.969737 31.11029,0 l -0.72632,34.870825 -2.85369,2.251166 -1.1349,-3.818524 -3.36933,1.557488 0.0683,-3.645105 -3.54122,1.384067 -1.65054,-3.124845 -3.19745,0.343549 -9.38514,-6.419824 9.34769,9.53878 0.58181,2.428569 2.47248,-0.519569 0.92556,3.122248 3.33189,-1.039828 -0.27759,3.122247 4.70693,-0.346147 2.81623,3.815926 -0.17724,4.091568 c -0.52036,12.012303 -29.04772,-3.468397 -29.04772,-3.468397 z"
           style="fill:#000000;fill-opacity:1;stroke:none" />
        <path
           inkscape:connector-curvature="0"
           id="path3622"
           d="m 457.81486,28.983989 2.35646,8.87323 -7.84518,-2.120945 z"
           style="fill:#f9f9f9;stroke:#000000;stroke-width:2.51696897px;stroke-linecap:butt;stroke-linejoin:miter;stroke-opacity:1" />
      </g>
      <path
         style="fill:#000000;fill-opacity:1;stroke:none"
         d="M 444.62682,64.391575 458.24073,68.039412 455.1886,79.430137 441.57468,75.7823 z"
         id="path3624"
         inkscape:connector-curvature="0" />
      <path
         style="fill:#000000;fill-opacity:1;stroke:none"
         d="m 435.99263,75.363817 33.86876,9.075107 -22.51936,34.900476 -3.556,29.20946 -30.88035,-8.27436 z"
         id="path3626"
         inkscape:connector-curvature="0"
         sodipodi:nodetypes="cccccc" />
      <rect
         style="fill:#000000;fill-opacity:1;stroke:none"
         id="rect3628"
         width="12.382819"
         height="25.304293"
         x="440.47375"
         y="33.077122"
         transform="matrix(0.9653441,0.26098039,-0.25667305,0.96649829,0,0)" />
      <rect
         y="175.85028"
         x="409.19122"
         height="25.31929"
         width="12.375361"
         id="rect3630"
         style="fill:#000000;fill-opacity:1;stroke:none" />
      <rect
         style="fill:#000000;fill-opacity:1;stroke:none"
         id="rect3632"
         width="7.6770363"
         height="9.0743475"
         x="422.77014"
         y="192.70203" />
      <rect
         y="258.20612"
         x="376.68393"
         height="25.304293"
         width="12.382819"
         id="rect3634"
         style="fill:#000000;fill-opacity:1;stroke:none"
         transform="matrix(0.9653441,-0.26098039,0.25667305,0.96649829,0,0)" />
      <rect
         style="fill:#000000;fill-opacity:1;stroke:none"
         id="rect3636"
         width="12.375361"
         height="25.31929"
         x="432.94077"
         y="177.29544" />
      <rect
         y="194.1472"
         x="446.51968"
         height="9.0743475"
         width="7.6770363"
         id="rect3638"
         style="fill:#000000;fill-opacity:1;stroke:none" />
    </g>
  </g>
</svg>
